# xmcd CD database file
#
# Track frame offsets:
#	150
#	14877
#	28429
#	40295
#	53474
#	67488
#	81287
#	96656
#	111661
#	125569
#	141042
#	152523
#	166256
#	180860
#	194861
#	209552
#	222898
#	236274
#	258766
#	274092
#
# Disc length: 3898 seconds
#
# Revision: 0
# Processed by: cddbd v1.5.2PL0 Copyright (c) Steve Scherf et al.
# Submitted via: CDex 1.70beta2
#
DISCID=350f3814
DTITLE=Louis Armstrong - Sing It Satchmo (Vol. 8)
DYEAR=2007
DGENRE=Blues
TTITLE0=Jodie Man
TTITLE1=I Wonder
TTITLE2=That's My Desire
TTITLE3=Blueberry Hill
TTITLE4=That Lucky Old Sun
TTITLE5=C'est Si Bon
TTITLE6=La Vie En Rose
TTITLE7=My Sweet Hunk O' Trash
TTITLE8=(I'll be Glad When You're Dead) You Rascal You
TTITLE9=I get Ideas
TTITLE10=Gone Fishin'
TTITLE11=A Kiss to Build a Dream One
TTITLE12=Because of You
TTITLE13=Kiss of Fire
TTITLE14=When It's Sleepy Time Down South
TTITLE15=Takes Two to Tango
TTITLE16=The Wiffenpoof Song (The Boppenpoof Song)
TTITLE17=Skokiaan (African Song)
TTITLE18=Mack the Knife (A Theme from the Threepenny Opera)
TTITLE19=Ain't Misbehavin'
EXTD=YEAR: 2007
EXTT0=
EXTT1=
EXTT2=
EXTT3=
EXTT4=
EXTT5=
EXTT6=
EXTT7=
EXTT8=
EXTT9=
EXTT10=
EXTT11=
EXTT12=
EXTT13=
EXTT14=
EXTT15=
EXTT16=
EXTT17=
EXTT18=
EXTT19=
PLAYORDER=
